<svg xmlns="http://www.w3.org/2000/svg" width="926" height="796" viewBox="0 0 926 796">
  <defs>
    <radialGradient id="bg-a" cx="13.792%" cy="74.233%" r="145.829%" fx="13.792%" fy="74.233%" gradientTransform="matrix(.49397 -.24586 .1253 .9693 -.023 .057)">
      <stop offset="0%" stop-color="#645ACC"/>
      <stop offset="100%" stop-color="#E7BFFF"/>
    </radialGradient>
    <radialGradient id="bg-b" cx="13.792%" cy="74.233%" r="82.178%" fx="13.792%" fy="74.233%" gradientTransform="matrix(.87658 -.4363 .48125 .7947 -.34 .212)">
      <stop offset="0%" stop-color="#645ACC"/>
      <stop offset="100%" stop-color="#E7BFFF"/>
    </radialGradient>
    <radialGradient id="bg-c" cx="13.792%" cy="74.233%" r="90.834%" fx="13.792%" fy="74.233%" gradientTransform="scale(.86313 1) rotate(-23.248 .149 .69)">
      <stop offset="0%" stop-color="#645ACC"/>
      <stop offset="100%" stop-color="#E7BFFF"/>
    </radialGradient>
    <radialGradient id="bg-d" cx="13.792%" cy="74.233%" r="93.039%" fx="13.792%" fy="74.233%" gradientTransform="scale(.83906 1) rotate(-22.667 .151 .676)">
      <stop offset="0%" stop-color="#645ACC"/>
      <stop offset="100%" stop-color="#E7BFFF"/>
    </radialGradient>
  </defs>
  <g fill="none" transform="translate(-100 -735)">
    <path fill="url(#bg-a)" d="M0,159.000073 C0,71.1867326 71.1867326,0 159.000073,0 L1264.22058,0 C1352.03062,0 1423.22065,71.1867326 1423.22065,159.000073 L1423.22065,615.294282 C1423.22065,676.04531 1373.97063,725.294332 1313.2206,725.294332 L159.000073,725.294332 C71.1867326,725.294332 0,654.1073 0,566.294259 L0,159.000073 Z" transform="rotate(40.818 97.787 690.44)"/>
    <path fill="url(#bg-b)" d="M0,100.000046 C0,44.7715205 44.7715205,0 100.000046,0 L589.56627,0 C644.795295,0 689.566316,44.7715205 689.566316,100.000046 L689.566316,660.619303 C689.566316,715.848328 644.795295,760.619349 589.56627,760.619349 L100.000046,760.619349 C44.7715205,760.619349 0,715.848328 0,660.619303 L0,100.000046 Z" opacity=".3" transform="rotate(130.818 424.189 495.39)"/>
    <path fill="url(#bg-c)" d="M0,100.000046 C0,44.7715205 44.7715205,0 100.000046,0 L589.56627,0 C644.795295,0 689.566316,44.7715205 689.566316,100.000046 L689.566316,495.185227 C689.566316,550.414252 644.795295,595.185273 589.56627,595.185273 L100.000046,595.185273 C44.7715205,595.185273 0,550.414252 0,495.185227 L0,100.000046 Z" opacity=".3" transform="rotate(130.818 590.101 686.828)"/>
    <path fill="url(#bg-d)" d="M0,100.000046 C0,44.7715205 44.7715205,0 100.000046,0 L589.56627,0 C644.795295,0 689.566316,44.7715205 689.566316,100.000046 L689.566316,478.586219 C689.566316,533.815245 644.795295,578.586265 589.56627,578.586265 L100.000046,578.586265 C44.7715205,578.586265 0,533.815245 0,478.586219 L0,100.000046 Z" opacity=".3" transform="rotate(130.818 455.81 738.453)"/>
  </g>
</svg>
