<svg xmlns="http://www.w3.org/2000/svg" width="60" height="60" viewBox="0 0 60 60">
  <g fill="none" fill-rule="evenodd">
    <circle cx="30" cy="30" r="30" fill="#D6BCFC"/>
    <g transform="translate(15 15)">
      <path fill="#805AD8" d="M15,0 C23.2842712,0 30,6.71572875 30,15 C30,15.3663022 29.98687,15.7295378 29.9610551,16.0892617 C29.5748104,15.761355 29.114859,15.48707 28.5800555,15.2865187 L26.9961381,14.6925497 C26.833042,8.20721922 21.5246266,3 15,3 C8.372583,3 3,8.372583 3,15 C3,21.5246266 8.20721922,26.833042 14.6925497,26.9961381 L15.2865187,28.5800555 C15.48707,29.114859 15.761355,29.5748104 16.0892617,29.9610551 C15.7295378,29.98687 15.3663022,30 15,30 C6.71572875,30 0,23.2842712 0,15 C0,6.71572875 6.71572875,0 15,0 Z M15,6 C19.4678093,6 23.1752473,9.25553618 23.8795256,13.52382 L20.2976764,12.1806265 C19.2883799,10.2880827 17.2946139,9 15,9 C11.6862915,9 9,11.6862915 9,15 C9,17.2946139 10.2880827,19.2883799 12.1806265,20.2976764 L13.52382,23.8795256 C9.25553618,23.1752473 6,19.4678093 6,15 C6,10.0294373 10.0294373,6 15,6 Z"/>
      <path fill="#44337C" fill-rule="nonzero" d="M23.933988,21.8126676 L29.5606602,27.4393398 C30.1464466,28.0251263 30.1464466,28.9748737 29.5606602,29.5606602 C28.9748737,30.1464466 28.0251263,30.1464466 27.4393398,29.5606602 L21.8126676,23.933988 L20.9552138,27.3638034 C20.5982162,28.7917937 18.6123384,28.9049042 18.0955062,27.5266852 L13.5955062,15.5266852 C13.1433201,14.3208556 14.3208556,13.1433201 15.5266852,13.5955062 L27.5266852,18.0955062 C28.9049042,18.6123384 28.7917937,20.5982162 27.3638034,20.9552138 L23.933988,21.8126676 Z"/>
    </g>
  </g>
</svg>
