<svg xmlns="http://www.w3.org/2000/svg" width="109" height="180" viewBox="0 0 109 180">
  <g fill="none" fill-rule="evenodd" transform="translate(-71)">
    <circle cx="90" cy="90" r="90" fill="#D6BCFC"/>
    <g transform="translate(45 45)">
      <circle cx="45" cy="45" r="45" fill="#805AD8"/>
      <path fill="#44337A" d="M0.222188592,40.5 C2.47994853,17.7600479 21.6659335,0 45,0 C49.7034257,0 54.2383145,0.721592227 58.5,2.06011028 L58.5,18.009391 C58.5,22.9747672 54.5065502,27 49.5017326,27 L45,27 L45,31.509391 C45,34.8439916 43.1989259,37.754581 40.5,39.3067376 L40.5,45 L49.509391,45 C54.4747672,45 58.5,49.0421728 58.5,53.990609 L58.5,58.5 L67.4733643,58.5 C72.4586375,58.5 76.5,62.5421728 76.5,67.490609 L76.5,77.1364476 C68.3831219,85.0935676 57.2645403,90 45,90 L45,72 L40.490609,72 C35.5252328,72 31.5,67.9578272 31.5,63.009391 L31.5,54 C26.5294373,54 22.5,50.0098214 22.5,45.0085439 L22.5,40.5 L0.222188592,40.5 L0.222188592,40.5 Z"/>
    </g>
  </g>
</svg>
