<svg xmlns="http://www.w3.org/2000/svg" width="109" height="180" viewBox="0 0 109 180">
  <g fill="none" fill-rule="evenodd" transform="translate(-71)">
    <circle cx="90" cy="90" r="90" fill="#D6BCFC"/>
    <g transform="translate(45 45)">
      <path fill="#44337A" d="M55.4207096,16.5369483 C57.1768594,16.5369483 58.5489906,17.4670295 59.2982859,18.7506359 C62.3400765,17.8779298 65.7520302,18.6403468 68.1486317,21.0369483 C70.5452332,23.4335499 71.3076502,26.8455035 70.4358826,29.8881213 C71.7185505,30.6365894 72.6486317,32.0087206 72.6486317,33.7648704 L72.6486317,65.5846755 C72.6486317,66.7781497 72.1745259,67.9227424 71.3306122,68.7666561 L52.2387291,87.8585391 C49.4038873,90.693381 44.5567486,88.6856305 44.5567486,84.6765586 L44.5569902,68.5815815 C43.8435926,68.8737635 43.1252125,69.154534 42.4020749,69.4237947 C40.4790522,70.1398333 38.3151746,69.4642597 37.141131,67.7813011 C35.0220901,64.7437153 32.6255009,61.8813499 29.9648655,59.2207145 C27.3042301,56.5600791 24.4418647,54.1634899 21.4042789,52.044449 C19.7213204,50.8704055 19.0457467,48.7065279 19.7617853,46.7835051 C20.0311719,46.0600294 20.3120791,45.3413157 20.6044084,44.6275892 L4.5090214,44.6288314 C0.499949568,44.6288314 -1.507801,39.7816928 1.32704088,36.9468509 L20.418924,17.8549678 C21.2628377,17.0110541 22.4074303,16.5369483 23.6009045,16.5369483 L55.4207096,16.5369483 Z M53.0900092,29.7311133 L43.4098424,39.4109148 C44.8355266,40.0930106 46.125296,40.9253008 47.1927876,41.9927924 C48.2599021,43.0599069 49.0919813,44.3491421 49.7739423,45.7742266 L59.4534647,36.0953033 C57.9761585,35.7006764 56.5797047,34.9238654 55.4207096,33.7648704 C54.2614526,32.6056133 53.4845524,31.2087901 53.0900092,29.7311133 Z M89.1823303,4.66912255 C89.036475,8.54897299 88.581418,12.3888887 87.8271926,16.156083 C85.698212,13.435329 78.8813324,15.3138049 76.3765538,12.8090263 C73.8717751,10.3042476 75.750251,3.48736803 73.029497,1.35838745 C76.7966913,0.604162036 80.636607,0.149105071 84.5164575,0.00324974354 C87.1330089,-0.0951143498 89.2806944,2.05257109 89.1823303,4.66912255 Z"/>
      <path fill="#805AD8" d="M26.2625802,33.633817 C29.1076277,29.1156711 32.4726504,24.8931245 36.325331,21.0404439 C46.53599,10.8297849 59.2997742,4.10719863 73.029497,1.35838745 C75.750251,3.48736803 78.3717751,5.80424763 80.8765538,8.30902626 C83.3813324,10.8138049 85.698212,13.435329 87.8271926,16.156083 C85.0783814,29.8858059 78.3557951,42.6495901 68.1451361,52.8602491 C64.2924555,56.7129296 60.069909,60.0779524 55.551763,62.9228367 C52.029054,57.0674054 47.7428153,51.5428201 42.6927876,46.4927924 C37.6427599,41.4427648 32.1181746,37.156526 26.2625802,33.6340761 L26.2625802,33.633817 Z M22.3934763,58.3579495 C23.9056569,59.6407616 25.3697878,60.9895979 26.782885,62.402695 C28.1959822,63.8157922 29.5448184,65.2799232 30.8276306,66.7921037 C32.92161,69.2604892 31.8027255,73.0660536 28.7059771,74.0082989 C25.1581404,75.0877965 21.532117,75.8908698 17.8614319,76.4120935 C14.8943584,76.8334069 12.3521732,74.2912216 12.7734866,71.3241482 C13.2947102,67.653463 14.0977835,64.0274396 15.1772812,60.4796029 C16.1195265,57.3828545 19.9250908,56.2639701 22.3934763,58.3579495 Z M55.4207096,33.7648704 C58.9354283,37.279589 64.6339131,37.279589 68.1486317,33.7648704 C71.6633503,30.2501518 71.6633503,24.5516669 68.1486317,21.0369483 C64.6339131,17.5222297 58.9354283,17.5222297 55.4207096,21.0369483 C51.905991,24.5516669 51.905991,30.2501518 55.4207096,33.7648704 Z"/>
    </g>
  </g>
</svg>
