<svg xmlns="http://www.w3.org/2000/svg" width="219" height="50" viewBox="0 0 219 50">
  <g fill="none">
    <path fill="#AABBC3" d="M69.4734043 35.106383C68.9414894 32.5106383 67.1648936 30.9946809 64.3723404 30.9893617 59.462766 30.9893617 57.9361702 34.8457447 57.9308511 39.037234 57.9308511 42.8297872 59.6329787 46.5851064 63.9468085 46.5957447 67.2180851 46.5957447 69.1755319 44.6861702 69.6223404 41.5744681L73.0957447 41.5744681C72.3404255 46.5904255 69.1489362 49.5744681 63.9787234 49.5638581 57.6755319 49.5638581 54.3297872 45.1595745 54.3404002 39.0106383 54.3510638 32.8617021 57.5319149 27.962766 64.0957447 27.973387 68.7659574 27.973387 72.5159574 30.1808511 72.9840426 35.0957447L69.4734043 35.106383zM85.8085106 28.0106207C92.3510638 28.0106207 95.8191489 32.7978723 95.808535 38.8457447 95.7978723 44.893617 92.3138298 49.6170213 85.7712766 49.6011041 79.2287234 49.5851064 75.7606383 44.8138298 75.7712522 38.8085106 75.7819149 32.8031915 79.2553191 28 85.8085106 28.0106207zM85.7765957 46.6276596C89.3297872 46.6276596 92.2074468 43.8457447 92.2127734 38.856383 92.2180851 33.8670213 89.3617021 31.0106383 85.8031915 31.0053115 82.2446809 31 79.3723404 33.787234 79.3616727 38.8297872 79.3510638 43.8723404 82.2234043 46.606383 85.7765957 46.6117021L85.7765957 46.6276596zM99.2819149 28.5159574L102.473404 28.5159574 102.473404 31.787234 102.553191 31.787234C103.994681 29.2340426 106.31383 28.0638298 109.265957 28.0638298 114.696809 28.0638298 116.367021 31.1861702 116.361715 35.6170213L116.335106 49.1914894 112.941489 49.1914894 112.968085 35.2180851C112.968085 32.7074468 111.37234 31.0691489 108.781915 31.0638298 104.670213 31.0638298 102.670213 33.8031915 102.664894 37.5159574L102.664894 49.1702128 99.2712766 49.1702128 99.2819149 28.5159574zM120.409574 28.5531915L123.601064 28.5531915 123.601064 31.8244681 123.680851 31.8244681C125.12234 29.2765957 127.43617 28.1010638 130.393617 28.1010638 135.819149 28.1010638 137.489362 31.2234043 137.484055 35.6542553L137.457447 49.2287234 134.042553 49.2287234 134.069149 35.2553191C134.069149 32.7446809 132.473404 31.106383 129.882979 31.1010638 125.771277 31.1010638 123.771277 33.8404255 123.765957 37.5531915L123.765957 49.2074468 120.37766 49.2074468 120.409574 28.5531915zM159.648936 42.7074468C158.723404 47.2606383 155.441489 49.7287234 150.81383 49.7181194 144.228723 49.7181194 141.12234 45.1489362 140.93617 38.8457447 140.93617 32.6595745 145.026596 28.1170213 150.654255 28.1276409 157.957447 28.1276409 160.180851 34.9680851 159.973404 39.9574468L144.547872 39.9308511C144.420213 43.5212766 146.452128 46.7180851 150.957447 46.7287234 153.755319 46.7287234 155.712766 45.3776596 156.31383 42.7021277L159.648936 42.7074468zM156.382979 36.9574468C156.336448 33.7122746 153.692314 31.1060494 150.446809 31.106383 146.898936 31.106383 144.776596 33.7659574 144.531915 36.9202128L156.382979 36.9574468zM178.031915 35.2765957C177.5 32.6861702 175.723404 31.1648936 172.930851 31.1595745 168.021277 31.1595745 166.494681 35.0212766 166.489362 39.2074468 166.489362 43 168.191489 46.7553191 172.505319 46.7659574 175.776596 46.7659574 177.734043 44.856383 178.180851 41.7446809L181.648936 41.7446809C180.882979 46.7765957 177.728723 49.7606383 172.537234 49.7500283 166.228723 49.7500283 162.888298 45.3457447 162.898911 39.1968085 162.909574 33.0478723 166.090426 28.1489362 172.654255 28.1595572 177.324468 28.1595572 181.074468 30.3670213 181.542553 35.2819149L178.031915 35.2765957zM190.707447 28.6755319L194.819149 28.6755319 194.819149 31.6702128 190.707447 31.6702128 190.707447 44.4787234C190.707447 46.037234 191.143617 46.3191489 193.260638 46.3244681L194.819149 46.3244681 194.819149 49.3191489 192.223404 49.3191489C188.712766 49.3191489 187.31383 48.5904255 187.324468 44.7978723L187.324468 31.6648936 183.81383 31.6648936 183.81383 28.6648936 187.329787 28.6648936 187.329787 22.4787234 190.723404 22.4787234 190.707447 28.6755319z"/>
    <polygon fill="#5D57A2" points=".048 20.628 5.122 20.628 5.069 48.936 0 48.904"/>
    <polygon fill="#5D57A2" points="9.973 20.649 17.112 20.649 25.09 42.649 25.17 42.649 32.979 20.686 40.037 20.686 39.989 48.957 35.16 48.957 35.197 26.617 35.106 26.617 27.048 48.936 22.872 48.936 14.894 26.596 14.814 26.596 14.771 48.936 9.947 48.936"/>
    <polygon fill="#5D57A2" points="44.851 20.707 49.92 20.707 49.867 48.984 44.798 48.984"/>
    <polygon fill="#A39FCC" points="216.324 9.218 209.218 2.09 204.165 14.229"/>
    <polygon fill="#5D57A2" points="216.324 9.218 204.165 14.229 201.351 20.984 208.676 21 218.404 11.309"/>
    <polygon fill="#5D57A2" points="207.138 0 197.41 9.697 197.394 17.016 204.165 14.229 209.218 2.09"/>
    <polygon fill="#2C2B6A" points="201.351 20.984 204.165 14.229 197.394 17.016 197.388 20.979"/>
  </g>
</svg>
