<svg xmlns="http://www.w3.org/2000/svg" width="146" height="46" viewBox="0 0 146 46">
  <g fill="#A0AEC0" transform="translate(-.4)">
    <path d="M17.4 12.3C20.1 11.2 21.5 9.3 21.5 6.9 21.5 2.7 17.8.6 10.4.6 10.4.6 1.3.6 1.3.6 1.2.6 1 .7.9.8.8.9.7 1 .8 1.2L.8 6.1.8 25.4C.8 25.7 1 25.9 1.3 25.9L9.7 25.9C13.3 25.9 23 25.9 23 18.9 23.1 15.5 21.2 13.3 17.4 12.3M6.8 13.8L10.4 13.8C13.5 13.8 17.1 14.5 17.1 18.1 17.1 21.6 15.1 23 10.6 23 8 23 6.8 22.9 6.8 22L6.8 13.8zM9.3 11.1L6.8 11.1 6.8 4.6C6.8 3.4 6.9 3.2 9.7 3.2 13.9 3.2 15.5 4.3 15.5 7 15.6 9.8 13.6 11.1 9.3 11.1M37.2.1C28.3.1 24.3 4.1 24.3 13.2 24.3 22.2 28.3 26.1 37.2 26.1 46 26.1 49.9 22.1 49.9 13.2 49.8 4.2 45.9.1 37.2.1M37.2 23.5C31 23.5 30.2 18 30.2 13.3 30.2 7.9 31 2.9 37.2 2.9 43.4 2.9 43.9 8.3 43.9 13.3 43.9 18.4 43.4 23.5 37.2 23.5M64.3.1C55.4.1 51.4 4.1 51.4 13.2 51.4 22.2 55.4 26.1 64.3 26.1 73.1 26.1 77 22.1 77 13.2 77 4.2 73.1.1 64.3.1M64.3 23.5C58.1 23.5 57.3 18 57.3 13.3 57.3 7.9 58.1 2.9 64.3 2.9 70.5 2.9 71 8.3 71 13.3 71 18.4 70.5 23.5 64.3 23.5M89.6 11.7C90.2 11.1 99.4 1.4 99.4 1.4 99.5 1.3 99.5 1.2 99.5 1 99.5.9 99.5.9 99.5.8 99.4.6 99.2.5 99 .5L95.7.5C95.6.5 95.4.6 95.3.7 95.3.7 86.3 10.1 85 11.5L85 .6C85 .5 84.9.3 84.8.2 84.7.1 84.6.1 84.4.1L79.4.5C79.1.5 78.9.7 78.9 1L78.9 5.7 78.9 25.2C78.9 25.5 79.1 25.7 79.4 25.7L84.3 25.7C84.6 25.7 84.8 25.5 84.8 25.2L84.8 14.4C86.2 16 94.5 25.7 94.5 25.7 94.6 25.8 94.7 25.9 94.9 25.9L100.6 25.9C100.8 25.9 101 25.8 101.1 25.6 101.1 25.5 101.1 25.5 101.1 25.4 101.1 25.3 101.1 25.2 101 25.1 101.3 25 90.2 12.3 89.6 11.7M122 23.1L116.8 23.1 111.8 23.1C109.6 23.1 109.5 23 109.5 21.5L109.5 14 114.4 14 119.3 14C119.4 14 119.6 13.9 119.7 13.9 119.8 13.8 119.9 13.7 119.9 13.5L119.9 11.8C119.9 11.5 119.7 11.3 119.4 11.3L114.5 11.3 109.6 11.3 109.6 4.6C109.6 3.4 109.7 3.2 111.9 3.2L115.4 3.2 121.3 3.2C121.6 3.2 121.8 3 121.8 2.7L121.8 1C121.8.9 121.7.7 121.7.6 121.6.5 121.5.4 121.3.4L104.1.4C104 .4 103.8.5 103.7.6 103.6.7 103.6.8 103.6 1L103.6 5.9 103.6 25.3C103.6 25.6 103.8 25.8 104.1 25.8L122 25.8C122.3 25.8 122.5 25.6 122.5 25.3L122.5 23.6C122.5 23.5 122.4 23.3 122.4 23.2 122.2 23.1 122.1 23.1 122 23.1M146.1 25C146.1 25 139.1 15 138.3 13.8 142.6 13 144.8 10.9 144.8 7.5 144.8.5 134.9.5 131.6.5L124.8.5C124.7.5 124.5.6 124.4.7 124.3.8 124.3.9 124.3 1.1L124.3 6 124.3 25.4C124.3 25.7 124.5 25.9 124.8 25.9L129.7 25.9C130 25.9 130.2 25.7 130.2 25.4L130.2 14.6 132.2 14.6C132.5 15 140 25.6 140 25.6 140.1 25.7 140.3 25.8 140.4 25.8L145.6 25.8C145.8 25.8 146 25.7 146.1 25.5 146.1 25.4 146.2 25.3 146.2 25.3 146.2 25.2 146.2 25.1 146.1 25M138.9 7.7C138.9 10.5 136.7 11.9 132.4 11.9L130.4 11.9 130.4 6C130.4 3.4 130.4 3.3 132.9 3.3 137 3.3 138.9 4.6 138.9 7.7"/>
    <polygon points=".8 33.3 4.1 33.3 5.7 42.8 5.7 42.8 7.4 33.3 11.5 33.3 13.3 42.8 13.3 42.8 14.9 33.3 18.1 33.3 15.4 45.7 11.1 45.7 9.4 36.2 9.4 36.2 7.7 45.7 3.5 45.7"/>
    <polygon points="24 33.3 27.3 33.3 27.3 38.1 31.2 38.1 31.2 33.3 34.5 33.3 34.5 45.7 31.2 45.7 31.2 40.4 27.3 40.4 27.3 45.7 24 45.7"/>
    <path d="M46.5,33.1 C42.4,33.1 40.3,35.5 40.3,39.5 C40.3,43.4 42.5,45.9 46.5,45.9 C50.5,45.9 52.7,43.5 52.7,39.5 C52.6,35.6 50.5,33.1 46.5,33.1 M46.5,43.4 C44.5,43.4 43.7,41.5 43.7,39.5 C43.7,37.4 44.5,35.6 46.5,35.6 C48.5,35.6 49.3,37.4 49.3,39.5 C49.3,41.5 48.5,43.4 46.5,43.4"/>
    <polygon points="58.5 33.3 61.8 33.3 61.8 43.2 66.8 43.2 66.8 45.7 58.5 45.7"/>
    <polygon points="73.5 33.3 82.1 33.3 82.1 35.7 76.7 35.7 76.7 38.2 81.8 38.2 81.8 40.5 76.7 40.5 76.7 43.3 82.3 43.3 82.3 45.7 73.5 45.7"/>
    <path d="M89.3 42.6C90.1 43.1 91.3 43.4 92.7 43.4 93.7 43.4 94.7 43.2 94.7 42.2 94.7 39.9 88.9 41.4 88.9 36.9 88.9 33.9 91.8 33.1 94.3 33.1 95.5 33.1 96.6 33.3 97.5 33.6L97.3 36.1C96.5 35.7 95.5 35.5 94.6 35.5 93.8 35.5 92.4 35.6 92.4 36.6 92.4 38.6 98.2 37.3 98.2 41.7 98.2 44.9 95.5 45.8 92.8 45.8 91.7 45.8 90.2 45.6 89.1 45.3L89.3 42.6M112.4 33.3L108.4 33.3 103.7 45.6 107 45.6 108 43 112.6 43 113.5 45.6 117.1 45.6 112.4 33.3zM108.7 40.7L110.3 35.9 110.3 35.9 111.8 40.7 108.7 40.7z"/>
    <polygon points="123 33.3 126.3 33.3 126.3 43.2 131.4 43.2 131.4 45.7 123 45.7"/>
    <polygon points="137.4 33.3 146 33.3 146 35.7 140.7 35.7 140.7 38.2 145.7 38.2 145.7 40.5 140.7 40.5 140.7 43.3 146.2 43.3 146.2 45.7 137.4 45.7"/>
  </g>
</svg>
