<svg xmlns="http://www.w3.org/2000/svg" width="151" height="24" viewBox="0 0 151 24">
  <g fill="#A0AEC0">
    <path d="M19.2 10.7C19 10.2 18.6 9.8 18 9.6 17.7 9.5 17 9.3 12.5 9.9 7.5 10.6 7.4 10.9 7 11.7 6.6 12.5 6.9 13.5 7.7 13.9 8.1 14.1 8.6 14.1 9.1 14 9.5 13.9 9.2 13.9 9.2 13.9 9.9 13.6 13.3 13.2 15.4 12.9 15.5 12.9 15.4 13 15.4 13.1 15.2 13.6 15.1 14.2 14.9 14.4 14.8 14.5 14.7 14.7 14.4 14.8 12.7 15.5 9.6 16.6 8 16.6 6.2 16.7 4.8 15.8 4 14.1 3.8 13.6 3.6 12.9 4.4 11.1 5.1 9.5 7.5 7.5 8.5 6.6 8.7 6.4 8.9 6.3 9 6.2 10.8 4.6 12.1 3.9 12.8 3.7 13 4 13.4 4.7 13.6 5.2 13.9 6.1 14.8 6.6 15.7 6.3 16.6 6 17.1 5.1 16.8 4.2 16.5 3.2 15.4.1 12.9.2 11.2.3 9.2 1.4 6.8 3.6 6.7 3.7 6.5 3.8 6.4 4 5 5.2 2.4 7.5 1.4 9.8.4 12.1.3 13.9 1.1 15.5 2.4 18.4 5.1 20 8.2 19.9 9.9 19.8 12.3 19.1 14.2 18.4L14.2 22.2C14.2 23.1 14.9 23.9 15.9 23.9 16.8 23.9 17.6 23.2 17.6 22.2L17.6 16.4C19.8 12.1 19.4 11.1 19.2 10.7zM28.7 12.3L28.7 12.3C29.2 11.9 29.8 11.5 30.1 11.2 31.7 9.8 32 6.9 31.9 5.4 31.8 3 29.3.6 27.1.6 25.8.6 23.2 1.3 22.7 1.4 21.7 1.7 21 2.7 21.3 3.8 21.5 4.6 22.2 5.1 23 5.2 22.9 5.9 22.8 6.5 22.7 6.7 22.5 7.2 22.3 8 22.1 9.3 22 9.3 21.9 9.3 21.8 9.3 20.7 9.2 19.8 10 19.7 11.1 19.6 12.1 20.3 13 21.3 13.2 21.1 14.6 21.1 17.4 21.1 19.2 21.1 20.1 21.9 20.9 22.8 20.8 23.7 20.8 24.5 20 24.4 19.1 24.4 17.4 24.4 15.4 24.5 14.4L26.3 15.4 30.5 19.1C31.3 19.8 32.5 19.7 33.2 18.9 33.9 18.1 33.8 16.9 33 16.2L28.7 12.3zM28 5.7C28.1 6.9 27.7 8.1 27.5 8.4 27.1 8.7 26.1 9.2 25.4 9.5 25.5 8.8 25.7 8.2 25.7 8 26 7.3 26.2 5.7 26.4 4.6 26.6 4.6 26.8 4.5 27 4.5 27.3 4.7 28 5.3 28 5.7zM45.9 5.9C47.1 5.6 47.8 4.4 47.6 3.2 47.3 2 46.1 1.3 44.9 1.5L36.6 3.7C35.4 4 34.7 5.2 34.9 6.4 35 6.8 35.2 7.2 35.5 7.5 35.4 8.6 35.4 9.6 35.3 10 35.1 10.3 35 10.6 35 11 35 11.1 34.9 11.2 34.9 11.3 34.2 13.8 34 14.8 34.1 15.5 34.3 17 36.5 19.1 37.9 19.4 38.7 19.6 41.6 19.9 42.8 19.6 43.8 19.3 44.5 18.3 44.2 17.2 43.9 16.2 42.9 15.5 41.8 15.8 41.8 15.8 41.8 15.8 41.8 15.8 41.3 15.9 39.4 15.8 38.8 15.6 38.6 15.5 38.1 15.1 37.9 14.8 38 14.3 38.2 13.4 38.4 12.8L44.4 12.4C45.5 12.3 46.3 11.4 46.2 10.3 46.1 9.2 45.2 8.4 44.1 8.5L39.1 8.8C39.1 8.4 39.2 7.9 39.2 7.5L45.9 5.9zM61.7 3.2C61.4 2 60.2 1.3 59 1.5L49.6 3.7C48.4 4 47.7 5.2 47.9 6.4 48 6.8 48.2 7.2 48.5 7.5 48.4 8.6 48.4 9.6 48.3 10 48.1 10.3 48 10.6 48 11 48 11.1 47.9 11.2 47.9 11.3 47.2 13.8 47 14.8 47.1 15.5 47.3 17 49.5 19.1 50.9 19.4 51.7 19.6 54.6 19.9 55.8 19.6 56.8 19.3 57.5 18.3 57.2 17.2 56.9 16.2 55.9 15.5 54.8 15.8 54.8 15.8 54.8 15.8 54.8 15.8 54.3 15.9 52.4 15.8 51.8 15.6 51.5 15.4 51.2 15.1 51 15 50.9 14.9 50.9 14.8 51 14.5 51.1 14 51.3 13.4 51.4 12.9 51.4 12.9 51.4 12.8 51.4 12.8L51.5 12.8 57.4 12.4C58.5 12.3 59.3 11.4 59.2 10.3 59.1 9.2 58.2 8.4 57.1 8.5L52.1 8.8C52.1 8.4 52.2 7.9 52.2 7.5L59.8 5.7C61.2 5.6 62 4.4 61.7 3.2zM66.3 1.6C66.3 1.6 66.3 1.7 66.3 1.7 66.3 1.7 66.3 1.7 66.3 1.7L66.3 1.6zM72.7 1.1C71.8 1.1 71 1.8 71 2.7L70.7 10.6C70.7 10.9 70.7 11.3 70.6 11.8 70.4 11.4 70.3 11.1 70.2 11 70.1 10.8 69.9 10.5 69.5 9.9 68.9 9.1 68.1 8 67.6 6.9 67.3 6.3 67 5.5 66.8 4.8 66.8 2.8 66.5 1.8 66.4 1.5 66 .5 64.9-4.26325641e-14 63.9.3 62.9.7 62.4 1.8 62.7 2.8L62.7 2.8C62.7 2.8 63 3.6 62.9 5.5 62.8 7.8 62.5 11 62.2 12.4 61.8 14.1 61.4 17 61.4 17.1 61.3 18.2 62 19.1 63.1 19.3 64.2 19.4 65.1 18.7 65.3 17.6 65.3 17.6 65.7 14.7 66 13.3 66.1 12.7 66.3 11.9 66.4 11.1 66.6 11.3 66.7 11.6 66.9 11.8 67.1 12.1 67.4 12.4 67.4 12.5 67.8 13.3 69.5 17 70.1 18.3 70.2 18.4 70.2 18.6 70.3 18.7 70.3 19.6 71 20.3 71.9 20.3 72.8 20.4 73.6 19.7 73.7 18.7L73.7 18.7C73.7 18.5 74.1 12.7 74.2 10.6L74.5 2.6C74.4 1.9 73.6 1.2 72.7 1.1zM89.3 9.8C91.3 8.6 91.4 5.6 91.2 4.7 91 2.7 88.3 1.3 86.5 1.1 85.1.9 82.5.7 80.7 1.1 79.1 1.5 76.1 2.6 76 2.6 75 3 74.5 4.1 74.8 5.1 75.2 6.1 76.3 6.6 77.3 6.3 77.8 6.1 78.9 5.7 79.9 5.4L79.7 8.9C79.3 9 79 9 79 9 78 9.2 77.3 10.3 77.5 11.3 77.7 12.2 78.5 12.8 79.4 12.8L79.4 12.9C79.3 14.8 79.3 19 79.3 19.2 79.3 20.1 80 20.9 81 20.9 81.9 20.9 82.7 20.2 82.7 19.2 82.7 19.2 82.7 14.9 82.8 13.1L82.9 12.1C83.4 12 83.9 11.9 84.2 11.8 85.9 11.7 88.5 10.3 89.3 9.8zM83.1 8.2L83.3 4.7C84.1 4.7 85 4.8 86 4.9 86.5 5 87.2 5.3 87.3 5.5 87.4 5.7 87.3 6.3 87.1 6.6 86.1 7.1 84.3 8 83.5 8.1 83.4 8.1 83.3 8.1 83.1 8.2zM99.2 15.5C98.4 15.1 97.4 15.4 97 16.2 97 16.2 97 16.2 97 16.2 96.9 16.3 96.6 16.8 95.7 16.8 93.9 16.8 93 16.6 92.7 16.2 92.4 15.8 92.4 14.8 92.8 13.6 93.4 13.5 94.2 13.4 94.6 13.5 95.7 13.7 97.4 13.4 99.6 13 99.8 13 99.9 12.9 100 12.9 100.8 12.8 101.8 12.3 102 12.2 103 11.7 103.3 10.6 102.9 9.6 102.4 8.6 101.3 8.3 100.3 8.7L100.3 8.7C100 8.9 99.5 9 99.4 9.1 99.3 9.1 99.2 9.1 99 9.2 96.4 9.7 95.6 9.7 95.4 9.7 95.2 9.7 94.9 9.6 94.7 9.6 95.1 8.8 95.4 8 95.8 7.3 95.9 7.3 95.9 7.3 96 7.3L100.5 6.2C102 6 104.5 5.1 105.3 4.8 106.4 4.4 107 3.1 106.6 1.9 106.2.7 104.9.2 103.7.6 102.3 1.1 100.4 1.7 99.9 1.8L99.7 1.8 99.5 1.8 95 2.9C94.1 3.1 93.4 3.9 93.3 4.8 92.8 5.9 91.5 8.7 90.7 10.5 90.5 10.7 90.4 11 90.4 11.2 90.3 11.5 90.2 11.8 90.1 11.9 89.7 13.1 88.8 16 90.3 18 91.7 19.8 93.9 20 96 20 98.4 20 99.8 18.5 100.3 17.6 100.3 16.9 100 15.9 99.2 15.5zM113.3 1.6C112.6 1 111.8.8 111.1 1 109.7 1.3 108.7 2.7 106.9 7 106.3 8.4 105.7 9.6 105.3 10.6 104.4 10.9 103.7 11.8 103.8 12.8 103.8 13.1 103.9 13.3 104 13.5 103.8 14 103.6 14.3 103.5 14.7L103.3 15.1C102.8 16.1 102 17.7 102 17.7 101.6 18.5 101.9 19.5 102.7 20 103.5 20.4 104.5 20.1 105 19.3 105 19.2 105.9 17.6 106.4 16.5L106.6 16.1C106.8 15.8 107 15.4 107.2 14.8L112 14.5C112 16.5 112 18.5 112 18.5 112 19.4 112.7 20.2 113.6 20.2 114.5 20.2 115.3 19.5 115.3 18.6 115.3 18.4 115.4 13.2 115.3 10.8 114.8 3.5 114 2.3 113.3 1.6zM109.8 8.3C110.4 7 111.2 5.5 111.2 5.5L111.3 5.7C111.3 5.7 111.5 7.8 111.6 10.1L109 10.3C109.2 9.6 109.5 9 109.8 8.3z"/>
    <path d="M150.4,3.1 C150.3,1.9 149.2,1 147.9,1.1 C147.7,1.1 143.3,1.6 142.3,1.8 L140.3,2.1 C139.1,2.3 137.2,2.6 137,2.6 C136.4,2.7 135.3,2.9 134.7,3 C133.9,2.9 133.1,3.4 132.8,4.2 C132.8,4.2 132.8,4.2 132.8,4.2 C132.7,4.3 132.7,4.5 132.6,4.7 C132,6 131.9,6.5 131.8,6.7 C131.7,6.9 131.6,7.4 131.4,7.9 C131.1,8.8 130.8,9.7 130.5,10.5 C130.4,10.7 130.3,10.9 130.3,11.1 C130,12 129.7,12.8 129.6,13.4 C129.5,13.6 129.5,13.8 129.5,14.1 C129.4,14 129.3,14 129.1,13.9 C128.1,13.5 127.7,13.6 126.6,15 L126.6,15 C126.6,15 125.2,15.6 123.9,15.3 C123.5,15.2 122.6,14.9 122.3,14.7 C121.7,14.4 120.7,14 120,13.3 C119.7,13 119.4,12 119.6,10.8 C119.7,10.3 120.2,9.4 120.2,9.4 C121.2,8.2 122.3,7.3 123.9,6.5 C125,5.9 125.4,6.1 125.6,6.3 C125.7,6.5 125.5,7.1 125.5,7.1 C125.4,8.6 125.3,8.8 125.9,9.7 C126.5,10.6 127.7,10.8 128.6,10.2 C129.1,9.8 129.6,9.1 130.2,7.8 C130.8,6.5 130.6,4.9 129.9,3.7 C129.3,2.8 128.5,2.2 127.5,2.2 C127.4,2.2 127.2,2.2 127.1,2.2 C126,2.1 124.3,1.9 122.2,3.1 C120.2,4.2 118.7,5.3 117.4,6.9 C117,7.3 115.8,8.5 115.6,10.2 C115.4,11.6 115.2,14.3 117,16 C118.1,17 119.5,17.8 120.8,18.5 C121.2,18.7 121.5,18.9 121.8,19.1 C123.4,20 125,20.3 127.1,20 C128.7,19.8 129.7,18.2 130.2,17 C130.4,17.3 130.6,17.6 130.7,17.7 C132.1,19.8 134.8,19.8 136.6,19.8 C139.1,19.8 141.1,18.3 141.3,18.1 C142.1,17.4 142.3,16.2 141.6,15.4 C140.9,14.6 139.7,14.4 138.9,15.1 L138.9,15.1 C138.6,15.3 137.6,15.9 136.6,15.9 C134.9,15.9 134,15.8 133.9,15.5 L133.8,15.3 L133.7,15.2 C133.7,15.1 133.4,14.8 133.6,14.1 C133.7,13.9 133.7,13.5 133.9,13.2 C134.2,13.2 134.4,13.2 134.6,13.2 C135.2,13.2 137.6,13 138,13 L141.3,13 C142.4,13 143.2,12.1 143.2,11 C143.2,9.9 142.3,9.1 141.2,9.1 L137.9,9.1 C137.5,9.1 136.2,9.2 135.2,9.2 C135.2,9.2 135.2,9.1 135.2,9.1 C135.6,8.1 135.7,7.8 135.7,7.5 C135.7,7.4 135.8,7.4 135.8,7.2 C136.4,7.1 137.3,7 137.7,6.9 C137.9,6.9 139.2,6.7 141.1,6.4 L143.1,6.1 C143.8,6 147,5.6 148.5,5.5 C149.6,5.4 150.5,4.3 150.4,3.1 Z"/>
  </g>
</svg>
