<svg xmlns="http://www.w3.org/2000/svg" width="150" height="36" viewBox="0 0 150 36">
  <g fill="#A0AEC0" fill-rule="evenodd" transform="translate(-.2)">
    <path d="M.9 32L2 32C5.7 32 6 30.2 6 26.3L6 .5 9.7 4.2 9.7 27.3C9.7 31.4 8.3 34.7 4.5 35.4L.9 32 .9 32 .9 32zM21.5 13.3C24.7 13.3 27 15.6 27 18.7 27 22.2 24.9 24.3 21.5 24.3 18.4 24.3 16.3 22 16.3 18.6 16.3 15.6 18.5 13.3 21.5 13.3L21.5 13.3 21.5 13.3 21.5 13.3zM21.5 27.5C26.8 27.5 30.5 24 30.5 18.7 30.5 13.8 26.7 10.2 21.5 10.2 16.5 10.2 12.7 13.9 12.7 18.7 12.7 23.8 16.4 27.5 21.5 27.5L21.5 27.5 21.5 27.5zM44 16.8C44 14.4 42.8 12.9 40.9 12.9 39.5 12.9 38.4 13.5 36.9 15.2L36.9 27.1 33.4 27.1 33.4 2.6 36.9 2.6 36.9 12.5C38.1 11 39.9 10.1 41.7 10.1 45 10.1 47.4 12.4 47.4 16.9L47.4 27.1 44 27.1 44 16.8 44 16.8 44 16.8zM62 16.9C62 14.5 60.8 13 58.9 13 57.5 13 56.4 13.6 54.9 15.3L54.9 27.1 51.4 27.1 51.4 10.5 54.9 10.5 54.9 12.6C56.1 11.1 57.9 10.2 59.7 10.2 62.9 10.2 65.4 12.4 65.4 16.9L65.4 27.1 62 27.1 62 16.9 62 16.9 62 16.9z"/>
    <polygon points="75.8 .5 79.1 3.9 79.1 23.7 86.6 23.7 89.8 27.1 75.8 27.1 75.8 .5"/>
    <path d="M96,13.2 C98.2,13.2 99.5,14.7 99.7,16.8 L91.7,16.8 C92.1,14.6 93.6,13.2 96,13.2 L96,13.2 L96,13.2 L96,13.2 Z M102.8,25.4 C102.2,24.9 100.6,23.3 100.6,23.3 C99.3,23.9 98.2,24.1 96.9,24.1 C93.9,24.1 92.1,22.5 91.5,19.6 L103,19.6 C103,13.2 100.2,10.2 95.8,10.2 C91.2,10.2 88,13.6 88,18.6 C88,23.2 90.9,27.4 96.1,27.4 C99,27.5 100.8,26.8 102.8,25.4 L102.8,25.4 L102.8,25.4 Z"/>
    <polygon points="122 27.5 117.1 15.6 112.2 27.5 111.2 27.5 103.7 10.5 107.5 10.5 111.7 20.4 115.8 10.5 118.4 10.5 122.5 20.4 126.8 10.5 130.5 10.5 123.1 27.5 122 27.5"/>
    <path d="M132.2 4.4C132.2 3.3 133.1 2.4 134.2 2.4 135.3 2.4 136.2 3.3 136.2 4.4 136.2 5.5 135.3 6.5 134.2 6.5 133.1 6.5 132.2 5.6 132.2 4.4L132.2 4.4 132.2 4.4zM132.5 10.5L136 10.5 136 27.2 132.5 27.2 132.5 10.5 132.5 10.5 132.5 10.5zM138.9 25.9L138.9 22.1C141.2 23.7 143.2 24.4 144.4 24.4 145.6 24.4 146.5 23.9 146.6 22.8 146.6 22.2 146.2 21.6 145.5 21.1 144.8 20.6 143.8 20.1 142.9 19.5 141 18.4 139.1 16.9 139.1 14.7 139.1 11.9 141.1 10.2 144.6 10.2 146.2 10.2 147.7 10.6 149.5 11.6L149.5 15.1C147.5 13.8 145.7 13.2 144.5 13.2 143.2 13.2 142.6 13.8 142.6 14.6 142.6 15.4 143.6 16.1 146.6 17.8 149.4 19.4 150.2 20.8 150.2 22.5 150.2 25.5 147.9 27.4 144.7 27.4 142.6 27.5 141.1 27.1 138.9 25.9L138.9 25.9 138.9 25.9z"/>
  </g>
</svg>
