<svg xmlns="http://www.w3.org/2000/svg" width="147" height="46" viewBox="0 0 147 46">
  <g fill="#A0AEC0">
    <path d="M15.3,1 L15.3,17.4 C15.3,22.5 12.6,26 7.2,26 C4.5,26 2.4,24.6 0.9,22.4 L4.5,18.6 C5.2,19.6 6.2,20.7 7.1,20.7 C9.1,20.7 9.1,18.5 9.1,17.1 L9.1,1 L15.3,1 Z M39.8,1 L39.8,14.7 C39.8,17.8 39.8,20.9 37.4,23.3 C35.4,25.3 32.2,26 29.3,26 C26.5,26 23.3,25.3 21.2,23.3 C18.8,20.9 18.6,17.8 18.6,14.7 L18.6,1 L24.8,1 L24.8,13.8 C24.8,17 25.2,20.4 29.3,20.4 C33.4,20.4 33.6,16.9 33.6,13.8 L33.6,1 L39.8,1 Z M53.9,6.2 C53.9,6.2 52.4,5.8 51.7,5.8 C50.5,5.8 49,6.5 49,7.8 C49,9.2 50.7,9.8 51.8,10.1 L53.4,10.6 C56.8,11.6 59.4,13.3 59.4,17.3 C59.4,19.7 58.8,22.2 56.9,23.9 C55,25.5 52.4,26.2 50,26.2 C46.9,26.2 43.9,25.2 41.4,23.4 C41.4,23.4 44.5,19.2 44.7,19 C44.7,19 48.7,20.8 49.8,20.8 C51.3,20.8 52.9,20.1 52.9,18.3 C52.9,16.5 50.4,15.9 49.1,15.5 C45.1,14.4 42.5,13.3 42.5,8.6 C42.5,3.7 46,0.4 50.9,0.4 C53.4,0.4 56.4,1.2 58.5,2.4 L53.9,6.2 Z M72.5,25.7 L66.3,25.7 L66.3,6.4 L59.4,6.4 L59.4,1 L79.5,1 L79.5,6.4 L72.6,6.4 L72.5,25.7 Z M139.1,25.7 L133,25.7 L133,6.4 L126.1,6.4 L126.1,1 L146.2,1 L146.2,6.4 L139.3,6.4 L139.1,25.7 Z M93.4,6.4 L93.4,10.6 L101,10.6 L101,16.1 L93.4,16.1 L93.4,20.3 L102.5,20.3 L102.5,25.7 L87.2,25.7 L87.2,1 L102.5,1 L102.5,6.4 L93.4,6.4 Z M119.9,1 L113.1,1 L103.6,25.7 L110.4,25.7 L112.1,21.4 L120.9,21.4 L122.5,25.7 L129.3,25.7 L119.9,1 Z M117.9,15.9 L118.5,19 L116.9,19.3 L116.3,16.2 L113.6,17.5 L115.2,6.9 L120.8,16.1 L117.9,15.9 Z"/>
    <g transform="translate(9 34)">
      <path d="M8.6 5C8.6 6.4 8.2 7.5 7.5 8.2 6.8 9 5.8 9.4 4.6 9.4 3.4 9.4 2.4 9 1.7 8.2 1 7.4.6 6.3.6 5 .6 3.6 1 2.6 1.7 1.8 2.4 1 3.4.6 4.6.6 5.8.6 6.8 1 7.5 1.8 8.2 2.5 8.6 3.6 8.6 5zM6.4 5C6.4 4.5 6.3 4.1 6.2 3.7 6.1 3.3 6 3.1 5.8 2.8 5.6 2.6 5.4 2.4 5.2 2.3 5 2.2 4.7 2.1 4.5 2.1 4.2 2.1 4 2.1 3.8 2.2 3.6 2.3 3.4 2.5 3.2 2.7 3 2.9 2.9 3.2 2.8 3.6 2.7 4 2.6 4.4 2.6 4.9 2.6 5.4 2.6 5.9 2.8 6.2 2.9 6.5 3 6.8 3.2 7.1 3.4 7.3 3.6 7.5 3.8 7.6 4 7.7 4.3 7.8 4.5 7.8 4.7 7.8 5 7.7 5.2 7.6 5.4 7.5 5.6 7.3 5.8 7.1 6 6.9 6.1 6.6 6.2 6.2 6.4 5.9 6.4 5.5 6.4 5zM13.9 4.7L13.7 4.7C13.6 4.7 13.5 4.7 13.4 4.6 13.3 4.6 13.1 4.6 12.9 4.6 12.7 4.6 12.5 4.6 12.3 4.7 12.1 4.8 11.9 4.8 11.6 4.9L11.6 9.2 9.7 9.2 9.7 2.8 11.6 2.8 11.6 3.7C11.7 3.6 11.8 3.5 12 3.4 12.2 3.3 12.3 3.2 12.4 3.1 12.5 3 12.7 2.9 12.9 2.9 13.1 2.8 13.3 2.8 13.4 2.8 13.5 2.8 13.5 2.8 13.6 2.8 13.7 2.8 13.7 2.8 13.8 2.8L13.8 4.7 13.9 4.7zM20.3 9.2L18.4 9.2 18.4 8.5C18.3 8.6 18.1 8.7 18 8.8 17.8 8.9 17.7 9 17.6 9.1 17.4 9.2 17.3 9.2 17.1 9.3 16.9 9.3 16.8 9.4 16.6 9.4 15.9 9.4 15.3 9.1 14.9 8.5 14.5 7.9 14.3 7.1 14.3 6.1 14.3 5.5 14.4 5.1 14.5 4.6 14.6 4.2 14.8 3.8 15.1 3.5 15.3 3.2 15.6 3 15.9 2.8 16.2 2.6 16.6 2.6 16.9 2.6 17.2 2.6 17.5 2.6 17.7 2.7 17.9 2.8 18.2 2.9 18.4 3L18.4.3 20.3.3 20.3 9.2 20.3 9.2zM18.3 7.5L18.3 4.4C18.2 4.4 18.1 4.3 17.9 4.3 17.7 4.3 17.6 4.3 17.5 4.3 17 4.3 16.7 4.5 16.4 4.8 16.2 5.1 16 5.6 16 6.2 16 6.8 16.1 7.3 16.3 7.6 16.5 7.9 16.8 8 17.2 8 17.4 8 17.5 8 17.7 7.9 18 7.7 18.2 7.6 18.3 7.5zM25 9.4C23.8 9.4 22.9 9.1 22.3 8.5 21.7 7.9 21.4 7.1 21.4 6 21.4 5 21.7 4.1 22.3 3.5 22.9 2.9 23.7 2.6 24.8 2.6 25.8 2.6 26.5 2.9 27 3.4 27.5 3.9 27.7 4.7 27.7 5.7L27.7 6.4 23.4 6.4C23.4 6.7 23.5 6.9 23.6 7.1 23.7 7.3 23.8 7.5 24 7.6 24.2 7.7 24.4 7.8 24.6 7.9 24.8 8 25.1 8 25.3 8 25.5 8 25.7 8 26 7.9 26.2 7.8 26.4 7.8 26.6 7.7 26.8 7.6 26.9 7.5 27 7.5 27.1 7.4 27.2 7.3 27.3 7.3L27.5 7.3 27.5 9C27.3 9.1 27.2 9.1 27.1 9.2 27 9.3 26.8 9.3 26.6 9.4 26.4 9.5 26.2 9.5 25.9 9.5 25.6 9.4 25.3 9.4 25 9.4zM25.6 5.2C25.6 4.8 25.5 4.5 25.3 4.2 25.1 4 24.8 3.9 24.5 3.9 24.1 3.9 23.8 4 23.6 4.2 23.4 4.4 23.3 4.7 23.2 5.1L25.6 5.1 25.6 5.2zM32.7 4.7L32.5 4.7C32.4 4.7 32.3 4.7 32.2 4.6 32.1 4.6 31.9 4.6 31.7 4.6 31.5 4.6 31.3 4.6 31.1 4.7 30.9 4.8 30.7 4.8 30.4 4.9L30.4 9.2 28.5 9.2 28.5 2.8 30.4 2.8 30.4 3.7C30.5 3.6 30.6 3.5 30.8 3.4 31 3.3 31.1 3.2 31.2 3.1 31.3 3 31.5 2.9 31.7 2.9 31.9 2.8 32.1 2.8 32.2 2.8 32.3 2.8 32.3 2.8 32.4 2.8 32.5 2.8 32.5 2.8 32.6 2.8L32.6 4.7 32.7 4.7zM39.2 9.4C38.4 9.4 37.8 9.2 37.5 8.9 37.1 8.6 37 8 37 7.3L37 4.3 36.3 4.3 36.3 2.9 37 2.9 37 1 38.9 1 38.9 2.8 40.8 2.8 40.8 4.2 38.9 4.2 38.9 6.5C38.9 6.7 38.9 6.9 38.9 7.1 38.9 7.3 38.9 7.4 39 7.6 39.1 7.7 39.1 7.8 39.3 7.9 39.4 8 39.6 8 39.9 8 40 8 40.1 8 40.3 7.9 40.5 7.8 40.6 7.8 40.7 7.8L40.9 7.8 40.9 9.2C40.7 9.3 40.5 9.3 40.2 9.3 39.8 9.3 39.5 9.4 39.2 9.4zM45 8.6C44.9 8.7 44.7 8.8 44.6 8.9 44.5 9 44.4 9.1 44.2 9.2 44 9.3 43.9 9.4 43.7 9.4 43.5 9.4 43.3 9.5 43 9.5 42.4 9.5 42 9.3 41.6 8.9 41.2 8.5 41.1 8 41.1 7.5 41.1 7 41.2 6.6 41.4 6.3 41.6 6 41.9 5.8 42.2 5.6 42.6 5.4 43 5.3 43.5 5.2 44 5.1 44.5 5.1 45.1 5L45.1 5C45.1 4.6 45 4.4 44.7 4.3 44.4 4.2 44 4 43.5 4 43.3 4 43 4 42.7 4.1 42.4 4.2 42.1 4.3 41.8 4.4L41.6 4.4 41.6 3C41.8 2.9 42.1 2.9 42.5 2.8 42.9 2.7 43.4 2.7 43.8 2.7 44.9 2.7 45.7 2.9 46.1 3.3 46.6 3.7 46.8 4.2 46.8 5L46.8 9.4 45 9.4 45 8.6zM45 7.6L45 6.3C44.7 6.3 44.4 6.4 44.2 6.4 44 6.4 43.8 6.5 43.6 6.5 43.4 6.6 43.3 6.7 43.2 6.8 43.1 6.9 43 7 43 7.2 43 7.5 43.1 7.7 43.2 7.8 43.4 8 43.7 8 44 8 44.2 8 44.3 8 44.5 7.9 44.7 7.8 44.8 7.7 45 7.6z"/>
      <polygon points="54.6 9.2 52.3 9.2 50.6 6.4 50.3 6.8 50.3 9.2 48.4 9.2 48.4 .3 50.3 .3 50.3 5.3 52.1 2.8 54.4 2.8 52.2 5.6"/>
      <path d="M58.4 9.4C57.2 9.4 56.3 9.1 55.7 8.5 55.1 7.9 54.8 7.1 54.8 6 54.8 5 55.1 4.1 55.7 3.5 56.3 2.9 57.1 2.6 58.2 2.6 59.2 2.6 59.9 2.9 60.4 3.4 60.9 3.9 61.1 4.7 61.1 5.7L61.1 6.4 56.8 6.4C56.8 6.7 56.9 6.9 57 7.1 57.1 7.3 57.2 7.5 57.4 7.6 57.6 7.7 57.8 7.8 58 7.9 58.2 8 58.5 8 58.7 8 58.9 8 59.1 8 59.4 7.9 59.6 7.8 59.8 7.8 60 7.7 60.2 7.6 60.3 7.5 60.4 7.5 60.5 7.4 60.6 7.3 60.7 7.3L60.9 7.3 60.9 9C60.7 9.1 60.6 9.1 60.5 9.2 60.4 9.3 60.2 9.3 60 9.4 59.8 9.5 59.6 9.5 59.3 9.5 59 9.4 58.7 9.4 58.4 9.4zM59 5.2C59 4.8 58.9 4.5 58.7 4.2 58.5 4 58.2 3.9 57.9 3.9 57.5 3.9 57.2 4 57 4.2 56.8 4.4 56.7 4.7 56.6 5.1L59 5.1 59 5.2zM65.4 8.6C65.3 8.7 65.1 8.8 65 8.9 64.9 9 64.8 9.1 64.6 9.2 64.4 9.3 64.3 9.4 64.1 9.4 63.9 9.4 63.7 9.5 63.4 9.5 62.8 9.5 62.4 9.3 62 8.9 61.6 8.5 61.5 8 61.5 7.5 61.5 7 61.6 6.6 61.8 6.3 62 6 62.3 5.8 62.6 5.6 63 5.4 63.4 5.3 63.9 5.2 64.4 5.1 64.9 5.1 65.5 5L65.5 5C65.5 4.6 65.4 4.4 65.1 4.3 64.8 4.2 64.5 4.1 64 4.1 63.8 4.1 63.5 4.1 63.2 4.2 62.9 4.3 62.6 4.4 62.3 4.5L62 4.5 62 3C62.2 2.9 62.5 2.9 62.9 2.8 63.3 2.7 63.8 2.7 64.2 2.7 65.3 2.7 66.1 2.9 66.5 3.3 67 3.7 67.2 4.2 67.2 5L67.2 9.4 65.3 9.4 65.3 8.6 65.4 8.6zM65.4 7.6L65.4 6.3C65.1 6.3 64.8 6.4 64.6 6.4 64.4 6.4 64.2 6.5 64 6.5 63.8 6.6 63.7 6.7 63.6 6.8 63.5 6.9 63.5 7.1 63.5 7.3 63.5 7.6 63.6 7.8 63.7 7.9 63.9 8 64.1 8.1 64.4 8.1 64.6 8.1 64.7 8.1 64.9 8 65.1 7.8 65.2 7.7 65.4 7.6z"/>
      <polygon points="78.1 2.8 76.3 9.2 74.2 9.2 73.1 5.1 72 9.2 69.9 9.2 68.1 2.8 70.1 2.8 71.1 7 72.3 2.8 74 2.8 75.1 7 76 2.8 78.1 2.8"/>
      <path d="M82.3,8.6 C82.2,8.7 82,8.8 81.9,8.9 C81.8,9 81.7,9.1 81.5,9.2 C81.3,9.3 81.2,9.4 81,9.4 C80.8,9.4 80.6,9.5 80.3,9.5 C79.7,9.5 79.3,9.3 78.9,8.9 C78.5,8.5 78.4,8 78.4,7.5 C78.4,7 78.5,6.6 78.7,6.3 C78.9,6 79.2,5.8 79.5,5.6 C79.9,5.4 80.3,5.3 80.8,5.2 C81.3,5.1 81.8,5.1 82.4,5 L82.4,5 C82.4,4.6 82.3,4.4 82,4.3 C81.7,4.2 81.4,4.1 80.9,4.1 C80.7,4.1 80.4,4.1 80.1,4.2 C79.8,4.3 79.5,4.4 79.2,4.5 L79,4.5 L79,3 C79.2,2.9 79.5,2.9 79.9,2.8 C80.3,2.7 80.8,2.7 81.2,2.7 C82.3,2.7 83.1,2.9 83.5,3.3 C84,3.7 84.2,4.2 84.2,5 L84.2,9.4 L82.3,9.4 L82.3,8.6 L82.3,8.6 Z M82.3,7.6 L82.3,6.3 C82,6.3 81.7,6.4 81.5,6.4 C81.3,6.4 81.1,6.5 80.9,6.5 C80.7,6.6 80.6,6.7 80.5,6.8 C80.4,6.9 80.4,7.1 80.4,7.3 C80.4,7.6 80.5,7.8 80.6,7.9 C80.8,8 81,8 81.3,8 C81.5,8 81.6,8 81.8,7.9 C82,7.8 82.2,7.7 82.3,7.6 Z"/>
      <polygon points="91.5 2.8 88.3 11.6 86.2 11.6 87.1 9.1 84.8 2.8 86.8 2.8 88.1 6.8 89.3 2.8"/>
      <path d="M101.6 6C101.6 7.1 101.3 7.9 100.8 8.5 100.2 9.1 99.4 9.4 98.4 9.4 97.4 9.4 96.6 9.1 96 8.5 95.4 7.9 95.2 7.1 95.2 6 95.2 4.9 95.5 4.1 96 3.5 96.6 2.9 97.4 2.6 98.4 2.6 99.4 2.6 100.2 2.9 100.8 3.5 101.3 4.1 101.6 5 101.6 6zM99.6 6C99.6 5.6 99.6 5.3 99.5 5 99.4 4.7 99.4 4.5 99.2 4.4 99.1 4.2 99 4.1 98.8 4.1 98.7 4 98.5 4 98.3 4 98.1 4 98 4 97.8 4.1 97.7 4.2 97.5 4.3 97.4 4.4 97.3 4.5 97.2 4.8 97.1 5 97 5.3 97 5.6 97 6 97 6.4 97 6.7 97.1 7 97.2 7.2 97.2 7.4 97.3 7.6 97.4 7.7 97.5 7.9 97.7 7.9 97.9 8 98 8 98.2 8 98.4 8 98.5 8 98.7 7.9 98.9 7.8 99 7.7 99.1 7.6 99.2 7.4 99.3 7.2 99.4 7 99.6 6.8 99.6 6.5 99.6 6zM108.5 9.2L106.5 9.2 106.5 6C106.5 5.7 106.5 5.5 106.5 5.2 106.5 4.9 106.4 4.8 106.4 4.6 106.3 4.5 106.2 4.4 106.1 4.3 106 4.2 105.8 4.2 105.6 4.2 105.4 4.2 105.3 4.2 105.1 4.3 104.9 4.4 104.8 4.5 104.6 4.6L104.6 9.1 102.7 9.1 102.7 2.7 104.6 2.7 104.6 3.4C104.9 3.1 105.2 2.9 105.5 2.7 105.8 2.5 106.1 2.5 106.5 2.5 107.1 2.5 107.6 2.7 108 3.1 108.3 3.5 108.5 4.1 108.5 4.9L108.5 9.2 108.5 9.2z"/>
      <polygon points="111.8 9.2 109.9 9.2 109.9 .3 111.8 .3"/>
      <path d="M115.3 1.9L113.2 1.9 113.2.3 115.3.3 115.3 1.9zM115.3 9.2L113.4 9.2 113.4 2.8 115.3 2.8 115.3 9.2zM122.6 9.2L120.6 9.2 120.6 6C120.6 5.7 120.6 5.5 120.6 5.2 120.6 4.9 120.5 4.8 120.5 4.6 120.4 4.5 120.3 4.4 120.2 4.3 120.1 4.2 119.9 4.2 119.7 4.2 119.5 4.2 119.4 4.2 119.2 4.3 119 4.4 118.9 4.5 118.7 4.6L118.7 9.1 116.8 9.1 116.8 2.7 118.7 2.7 118.7 3.4C119 3.1 119.3 2.9 119.6 2.7 119.9 2.5 120.2 2.5 120.6 2.5 121.2 2.5 121.7 2.7 122.1 3.1 122.4 3.5 122.6 4.1 122.6 4.9L122.6 9.2zM127.2 9.4C126 9.4 125.1 9.1 124.5 8.5 123.9 7.9 123.6 7.1 123.6 6 123.6 5 123.9 4.1 124.5 3.5 125.1 2.9 125.9 2.6 127 2.6 128 2.6 128.7 2.9 129.2 3.4 129.7 3.9 129.9 4.7 129.9 5.7L129.9 6.4 125.6 6.4C125.6 6.7 125.7 6.9 125.8 7.1 125.9 7.3 126 7.5 126.2 7.6 126.4 7.7 126.6 7.8 126.8 7.9 127 8 127.3 8 127.5 8 127.7 8 127.9 8 128.2 7.9 128.4 7.8 128.6 7.8 128.8 7.7 129 7.6 129.1 7.5 129.2 7.5 129.3 7.4 129.4 7.3 129.5 7.3L129.7 7.3 129.7 9C129.5 9.1 129.4 9.1 129.3 9.2 129.2 9.3 129 9.3 128.8 9.4 128.6 9.5 128.4 9.5 128.1 9.5 127.8 9.4 127.6 9.4 127.2 9.4zM127.9 5.2C127.9 4.8 127.8 4.5 127.6 4.2 127.4 4 127.1 3.9 126.8 3.9 126.4 3.9 126.1 4 125.9 4.2 125.7 4.4 125.6 4.7 125.5 5.1L127.9 5.1 127.9 5.2z"/>
    </g>
  </g>
</svg>
