<svg xmlns="http://www.w3.org/2000/svg" width="147" height="48" viewBox="0 0 147 48">
  <g fill="#A0AEC0" transform="translate(.4)">
    <path d="M25.7 29C25.6 28.9 25.5 28.9 25.4 28.9 25.4 29.1 25.5 29.1 25.6 29.1L25.6 29 25.7 29zM25.4 29.4C25.3 29.3 25.2 29.3 25.1 29.3L25 29.4 25.2 29.5 25.2 29.4 25.4 29.4z"/>
    <path d="M43.8,23.4 C39.8,23.7 33.9,37.2 29,33.3 C29,32.6 28.9,31.8 29.3,31.1 C29.3,30.6 29.2,30.2 29.6,29.7 C29.6,29.4 29.6,29 29.9,28.9 C30.2,27.7 30.1,26.7 30,25.5 L29.8,25.2 C28.2,25 28.2,23.2 26.6,23.8 C23,25.2 17.1,27.1 15.3,30.9 L15.1,31.1 L15.1,31.4 L14.8,31.6 L14.8,31.8 L14.5,32.2 C14.6,32.4 14.4,32.6 14.2,32.8 C14.2,33.1 14.2,33.3 13.9,33.5 C14,33.8 14,34.4 13.6,34.5 C13.6,35 13.7,35.4 13.3,35.8 C13.2,36.7 13.4,37.6 14,38.3 C16.3,39.3 18.6,37.6 20.2,36.2 C20.3,35.9 20.6,35.8 20.9,35.7 L21,35.5 C21.5,35.1 22.2,34.8 22.4,34.1 C23.4,33.2 25.1,31.5 25.7,30.3 L26,30 L26,29.9 C26.7,29.2 27.2,29.7 27,30.5 L27.2,30.6 C28.1,41.2 31.4,35.5 36.1,32.3 C36.1,31.9 36.6,31.6 36.6,31.4 C37.5,30.6 38.2,29.7 39.1,28.8 C39.2,28.3 39.6,28.2 39.6,27.9 L39.9,27.7 C39.9,27.4 40.2,27.2 40.5,27.2 C40.8,26.6 41.3,26.1 41.9,25.8 C43,26.5 43.4,26.8 44.4,25.7 C44.5,25.4 44.6,25 44.4,24.7 C44.3,24.2 44,23.8 43.8,23.4 Z M25.7,29.2 L25.6,29.1 L25.6,29.6 L25.3,29.5 L25.3,30 L25,29.9 C24.7,30.8 23.2,31.8 22.8,32.7 C20.5,34.5 16.5,38.7 15.8,35.8 C15.7,35.2 15.8,34.2 15.8,34.2 C16.3,34.3 16.1,33.7 16.1,33.3 L16.4,33.4 L16.4,32.6 L16.7,32.7 L16.7,32 L17,32.1 L17,31.6 C17.2,31.7 17.4,31.8 17.4,31.7 L17.6,31.3 C17.8,31 17.9,30.7 18.1,30.5 C19.7,28.6 23.7,27.1 26.1,26.6 C26.3,27.9 26.2,28 25.7,29.2 Z"/>
    <path d="M17.1 32.2L16.9 32.1C16.9 32.2 16.9 32.3 16.8 32.3 17 32.4 17.1 32.3 17.1 32.2zM70.6 22.4C70.5 22.3 70.4 22.3 70.3 22.3 70.3 22.5 70.4 22.5 70.5 22.6L70.5 22.5 70.6 22.4zM60.5 26.2L60.3 26C60.3 26.1 60.3 26.2 60.2 26.3 60.4 26.4 60.5 26.4 60.5 26.2zM70.3 22.9C70.2 22.8 70.1 22.8 70 22.8L69.9 23 70.2 23.1 70.2 23 70.3 22.9zM100.8 32.6C100.4 33 99.6 32.8 99.7 33.7 99.9 34 100.1 34.9 100.7 34.3 100.8 34.2 100.7 34 100.8 33.9 100.7 33.4 101.7 32.8 100.8 32.6zM101.2 32L101.5 32.1 101.5 31.7C101.2 31.7 101.3 32 101.2 32zM99.6 27.3C99.5 27.8 99.7 28.3 100.1 28.1L100.1 27.7C100.2 27.6 100.2 27.5 100.4 27.6 100.1 27.4 99.8 26.9 99.6 27.3zM101.7 26.6L102 26.6C102.1 26.2 101.8 26.3 101.7 26.2L101.7 26.6zM102.7 25.4L102.7 24.9 102.4 24.9C102.3 25.2 102.5 25.3 102.7 25.4zM102.8 26.5C102.8 26.5 102.6 27 102.8 27.1 103 27.2 103.2 27.3 103.4 27.1 103.7 26.9 103.2 26.4 102.8 26.5zM124.4 18.7C124.3 18.6 124.2 18.6 124.1 18.6 124.1 18.8 124.2 18.8 124.3 18.9L124.3 18.8 124.4 18.7z"/>
    <path d="M146.3,13.6 C146.2,13 146,12.6 145.7,12.1 C140.9,12.4 134,28.3 128.2,23.8 C128.2,23 128.1,22 128.5,21.2 C128.5,20.6 128.4,20.1 128.8,19.5 C128.8,19.2 128.8,18.7 129.2,18.6 C129.6,17.2 129.5,16 129.3,14.6 L129.1,14.3 C127.2,14.1 127.2,12 125.3,12.7 C121.1,14.3 114.1,16.6 112,21.1 L111.7,21.3 L111.7,21.7 L111.4,22 L111.4,22.2 L111.1,22.6 C111.2,22.9 111,23.1 110.8,23.3 C110.8,23.6 110.8,23.9 110.5,24.1 C110.6,24.5 110.6,25.1 110.2,25.3 C110.2,25.9 110.3,26.3 109.9,26.8 C109.9,27 109.9,27.1 109.9,27.3 C105.9,28.6 102.6,29.3 98.8,28.3 C97,27.5 95.6,26.2 94.9,24.3 C95.1,23.7 95.3,23 95.5,22.4 C97,20.7 99.2,18.6 101.8,19.1 C102.1,19.4 102.6,19.7 103.1,19.8 C103.9,21.1 105.9,20.8 107,22 C108.2,22 108.6,21 109.4,20.4 C109.7,20.2 110.2,20.2 110.2,19.8 C111.3,19.4 112.3,18.6 112.8,17.7 C112,17.4 113.4,16.8 112.9,16.8 C113.3,16.4 112.7,15.8 112.6,15.3 C112.9,15 112.7,15 112.8,14.7 C113.3,12 108.6,12.8 106.2,12.3 C102.5,11.5 98.7,13 96.6,15.8 C96,16.9 95.1,17.7 94.9,19 C94.9,19.2 94.8,19.4 94.6,19.3 C94.6,19.5 94.7,20 94.3,20 C94.3,20.1 94.4,20.8 94.2,20.9 C93.9,19.1 89,23.6 88.4,23.8 C87.9,23.4 86.7,23.2 85.3,22.9 C85.6,22.6 85.9,22.3 86.2,21.9 C86.3,21.3 86.8,21.2 86.8,20.8 L87.1,20.5 C87.1,20.1 87.5,19.9 87.8,19.9 C88.2,19.2 88.7,18.6 89.4,18.3 C90.7,19.1 91.2,19.5 92.4,18.2 C92.5,18 92.6,17.6 92.5,17.3 C92.9,16.9 93.2,16.5 93.4,16 L93.2,15.9 L93.5,15.8 C93.8,15.3 93.7,14.8 93.4,14.3 L93.7,14.2 C94.9,11.7 91.5,13 91.3,11.7 L89.6,11.7 L89.6,11.6 C84.5,13.3 82.9,14.7 79.6,18.9 C79.3,19.2 78.3,21.5 79.7,20.5 C79.6,21.7 80.5,22.5 80.6,23.6 C81.2,24 82,24.3 82.7,24.2 C79.9,27.2 77.1,29.3 74.5,27.2 C74.5,26.4 74.4,25.4 74.8,24.6 C74.8,24 74.7,23.5 75.1,22.9 C75.1,22.6 75.1,22.1 75.5,22 C75.9,20.6 75.8,19.4 75.6,18 L75.5,18 C73.6,17.8 73.6,15.7 71.7,16.4 C67.5,18 60.5,20.3 58.4,24.8 L58.2,25 L58.2,25.4 L57.9,25.7 C59.5,20.1 61.3,14.1 63.8,10.2 C70.8,8.7 76.6,7.5 78.2,7.4 C80.9,6.9 83,7.5 85.6,6.7 C92.6,6.6 100.5,5.5 106.8,6.1 C110.2,4.4 114.6,6.5 117.2,4.4 L116.4,3.7 C116.7,3.3 117.3,3.5 117.8,3.1 C117,2.4 114.9,3 114.2,2.4 C114.6,2.2 114.8,1.9 115.1,2.1 C115.4,2.4 116.3,2.1 116.4,1.9 C114.5,1.4 113.2,1.7 111.1,1.5 C108.1,0.9 104,0.8 100.9,1.2 C99.6,1.1 97.4,0.9 96.1,1 L96,1.3 C100.8,1.2 103.4,1.5 108,1.7 C108.3,2 108.7,2.3 109.3,2.3 L107.6,3.4 C102.8,2.6 95.2,3.3 89.6,3.2 C87.4,1.8 81.5,2.7 78.4,2.6 C77.4,2.3 77.8,2.9 77.4,3 C75.8,3.4 73.6,4.6 73.2,2.8 C70.3,3 69.3,2.5 67.5,1.5 C65.7,0.4 63.5,2.4 61.4,1.7 C59.5,3.4 60.3,1.8 59.4,3.7 C58.1,4.7 58.3,4.7 57.8,5.6 C50.4,6.4 42.4,8 35.5,10 C34.4,9.2 31.8,10.7 30.7,10.7 L31.3,10.2 C29.6,10 28.2,11.1 26.6,11.7 C27.9,11.8 28.7,10.5 29.8,11.1 C29.5,12.3 27.1,12.1 26.6,12.5 C26.7,12 24.6,12.2 25.6,11.5 L23.9,11.8 C23,12.3 20.9,12.9 21.4,13.8 C24.1,14.9 30.9,15.8 34.7,16.1 C38.6,15.7 48.6,13.5 58.1,11.4 C55.8,16 52.3,23.1 51.7,25.6 L52.1,25.8 C52.2,26.7 50.2,26.3 50.8,26.6 C50.9,26.6 50.9,26.6 51.1,26.6 C51.4,26.7 50.5,27.1 50.8,27.3 C51,27.4 51.6,27.3 51.6,27.3 C49.6,31.1 49.5,32.5 47.4,36.2 L47.3,36.2 C48,37.8 45.1,36.9 47.4,39.8 C47.7,40.1 47.5,40.6 47.8,41 C48.7,42.3 53.1,42.9 53.4,42.2 C53.7,41.6 53.2,40.7 53.5,40 C53.7,39.5 53.8,39 54,38.5 C54.9,37 55.7,34.5 56.5,31.5 C56.6,32.2 56.8,33 57.3,33.5 C60,34.7 62.7,32.7 64.6,31 C64.7,30.7 65.1,30.6 65.4,30.4 L65.5,30.1 C66.1,29.6 66.9,29.3 67.2,28.4 C68.4,27.4 70.4,25.4 71.1,23.9 L71.4,23.6 L71.4,23.5 C72.2,22.7 72.8,23.2 72.6,24.2 L72.8,24.3 C73.8,36.8 77.7,30.1 83.3,26.4 C83.3,25.9 83.9,25.6 83.9,25.3 C84.3,24.9 84.7,24.5 85.1,24.1 C86.2,24.1 87.4,24.3 88,25 C86.3,26.1 84,26.9 82.9,28.6 L83,29 L83.3,29.1 L83,29.2 C82.6,30.1 81.7,30.7 81.6,31.7 L81,31.7 L80.9,32 L80.5,32.3 L80.5,32.7 C81.3,33.1 82.3,33.3 83.1,32.9 L83,32.7 C90.9,29.6 86.8,25.5 94,21.9 C94,22.1 94.1,22.2 94.3,22.6 C93.4,26.6 95.9,27.7 97.6,29.3 C100.7,31.3 103.7,30.4 107.4,29.3 C108.5,29 109.3,28.9 110.1,28.3 C110.2,28.9 110.4,29.4 110.9,29.9 C113.6,31.1 116.3,29.1 118.2,27.4 C118.3,27.1 118.7,27 119,26.8 L119.1,26.5 C119.7,26 120.5,25.7 120.8,24.8 C122,23.8 124,21.8 124.7,20.3 L125,20 L125,19.9 C125.8,19.1 126.4,19.6 126.2,20.6 L126.4,20.7 C127.4,33.2 131.3,26.5 136.9,22.8 C136.9,22.3 137.5,22 137.5,21.7 C137.6,21.6 137.6,21.6 137.7,21.5 C137.5,22.2 137.8,22.9 138.4,22.7 L138.4,22 C138.5,21.8 138.6,21.7 138.8,21.8 C138.5,21.6 138.2,21 137.9,21.2 C138.8,20.3 139.6,19.4 140.4,18.5 C140.5,17.9 141,17.8 141,17.4 L141.3,17.1 C141.3,16.7 141.7,16.5 142,16.5 C142.4,15.8 142.9,15.2 143.6,14.9 C144.9,15.7 145.4,16.1 146.6,14.8 C146.4,14.5 146.5,14 146.3,13.6 Z M112,1.9 C112,2.6 113.5,2 113.9,2.5 C112.8,2.3 110.9,2.4 110.5,2 L112,1.9 Z M57.8,26 C57.8,25.9 57.9,25.8 57.9,25.7 L57.9,25.9 L57.8,26 Z M70.6,22.6 L70.5,22.5 L70.5,23.1 L70.2,23 L70.2,23.6 L69.8,23.5 C69.5,24.5 67.7,25.7 67.2,26.8 C64.4,28.9 59.8,33.9 59,30.5 C58.9,29.8 59,28.6 59,28.6 C59.6,28.7 59.3,28 59.3,27.5 L59.6,27.6 L59.6,26.7 L59.9,26.8 L59.9,25.8 L60.2,25.9 L60.2,25.3 C60.5,25.4 60.6,25.6 60.6,25.4 L60.9,25 C61.1,24.7 61.3,24.3 61.5,24 C63.4,21.8 68.1,20 70.9,19.4 C71.3,21.2 71.3,21.3 70.6,22.6 Z M81.5,21.3 C80.8,19.3 86.5,17.4 88.9,17.6 C87.4,19 85.9,21 84.2,22.8 C82.6,22.5 81.2,22.1 81.5,21.3 Z M82.9,24.3 L82.9,24.3 C83,24.2 83,24.2 83,24.2 C82.9,24.2 82.9,24.3 82.9,24.3 Z M88.2,27.1 L87.8,27.4 C87.7,27.9 87.4,28.4 87,28.7 C85.9,29.9 84.6,31.3 82.8,31 C82.9,29.8 86.9,26.8 88.1,25.9 C88.1,25.9 88.3,25.8 88.4,25.9 C88.9,26 88.2,27.1 88.2,27.1 Z M124.4,19 L124.3,18.9 L124.3,19.5 L124,19.4 L124,20 L123.6,19.9 C123.3,20.9 121.5,22.1 121,23.2 C118.2,25.3 113.6,30.3 112.8,26.9 C112.7,26.2 112.8,25 112.8,25 C113.4,25.1 113.1,24.4 113.1,23.9 L113.4,24 L113.4,23.1 L113.7,23.2 L113.7,22.2 L114,22.3 L114,21.7 C114.3,21.8 114.4,22 114.4,21.8 L114.7,21.4 C114.9,21.1 115.1,20.7 115.3,20.4 C117.2,18.2 121.9,16.4 124.7,15.8 C125.1,17.5 125,17.6 124.4,19 Z"/>
    <path d="M114.3 22.5L114 22.4C114 22.5 114 22.6 113.9 22.7 114.2 22.8 114.2 22.7 114.3 22.5zM124 19.2C123.9 19.1 123.8 19.1 123.7 19.1L123.6 19.2 123.9 19.3 123.9 19.2 124 19.2zM130.1 3.6C129.3 4.3 128 3.1 128 4 128.8 3.8 129.6 4.2 130.1 3.6zM118.4 5.5L119.5 5.4 119.7 4.2C120.3 3.7 119.5 2.5 118.3 3.5L119.1 3.6C118.5 4.1 119.7 5.1 118.4 5.5zM118.4 1.8L118.3 2.1 120.1 2.1C119.5 2 119 1.9 118.4 1.8zM121.6 5.2L121.9 5.1C121.9 2.6 125.7 4.9 127.4 3.6 125.8 3.3 124.1 3.5 122.9 2.9 123.8 1.9 124.4 3.5 125.3 2.5 124.3 2.2 122.5 2.2 121 2.1 122.9 2.5 120.8 4.5 121.6 5.2zM44.7 38.9C45.1 38.3 46 37.9 45.5 37.1L44.7 38.9zM44.7 38.9C44.6 39 44.6 39.1 44.7 38.9L44.7 38.9z"/>
    <polygon points="48.7 30.7 48 32.4 48.1 32.4 48.9 30.8"/>
    <path d="M47.4 33.3L45.9 36.7C46.7 35.6 47.2 34.4 47.7 33.3L47.4 33.3zM37.6 24.6L37.6 25.2 38.1 25.2C38.3 24.6 37.8 24.7 37.6 24.6zM35.3 27.3L35.3 26.7C35.4 26.5 35.5 26.4 35.7 26.5 35.3 26.2 35 25.5 34.6 26 34.3 26.8 34.6 27.5 35.3 27.3zM40 25.9C40.4 25.6 39.7 24.8 39.2 25 39.2 25 38.9 25.7 39.2 25.9 39.5 26.1 39.8 26.2 40 25.9zM39 22.7L38.5 22.7C38.4 23.2 38.7 23.3 39 23.4L39 22.7zM32 37.8L32.4 38 32.4 37.4C32.1 37.3 32.2 37.8 32 37.8zM31.4 38.8C31.1 39.1 30.7 39.2 30.4 39.3 30.8 38.7 31.2 38 31.6 37.4 31.1 37.5 30.4 38.5 29.5 38.7 26.8 39.4 24 38.5 21.4 39.3 16.4 40.7 10.3 42.2 5.1 42.3 4.9 42.3 4.8 42.3 4.7 42.2 5.2 40.5 6.4 36.4 6.6 36.4 6.5 36.2 6.7 36 6.8 35.8 6.7 35.6 7.8 33.1 8 32.6 7.9 32.4 8.3 31.9 8.3 31.8 8.5 31.6 8.3 31.3 8.6 31 8.5 30.8 8.7 30.6 8.8 30.5 8.7 30.4 9.1 29.7 9.1 29.7L9.6 28.8C9.6 28.7 9.6 28.5 9.8 28.5 9.7 28.3 10 28 10.1 27.9 10 27.6 11.5 25 11.6 24.6 11.5 24.5 11.8 24.1 11.8 24.1 12 23.8 12.7 22.1 12.8 22.1 12.9 21.8 13 21.6 13.1 21.4 13.1 21.2 13 21.3 13.4 20.8 13.3 20.3 13.9 20.1 13.9 19.7 14.1 19.4 14.1 19 14.4 18.9 14.5 18.3 15 17.8 15.3 17.3 15.2 17 15.4 16.8 15.6 16.7 15.7 16.4 15.9 15.9 15.9 15.9 15.8 15.7 16 15.5 16.1 15.4 16 15 16.4 14.5 16.5 14.2 16.4 14.1 16.7 13.5 16.7 13.4 16.6 13.3 17 12.8 16.9 12.6 17 12.3 17 11.9 17 11.7 17.1 11.7 17.1 11.7 17.1 11.6 17.1 11.7 17.1 11.8 17.1 11.8 17.3 12.1 17.5 13 18.1 12.4 18.2 12.3 18.1 12.1 18.2 12 18.1 11.5 19 10.8 18.2 10.7 17.8 11 17.2 10.9 17.1 11.5 17.1 11.5 17.1 11.5 17.1 11.4 17.1 11.2 17.4 10.8 17.3 10.6 17.8 10.5 17.5 10 17.7 9.7 17.4 9.4 17.4 9.4 17.4 9.1 17.2 8.9 16.8 8.7 16.5 8.7 14.2 8.9 10.4 17.3 9.5 17.9 9.4 18.2 9.3 18.6 9 18.8L8.6 19.7C8.6 19.9 8.2 20.8 8 20.8 8 21 7.6 21.9 7.4 21.9 7.6 22.2 7.2 22.2 7.3 22.4 6.9 22.6 7.1 23.1 6.8 23.3L6.3 24.2C6.8 24.6 5.8 25.3 5.6 25.9 5.7 26 5.5 26.4 5.4 26.4 5.4 26.6 5.2 26.9 5.1 27.1 5.2 27.2 5.1 27.4 4.9 27.4 5.1 27.6 4.9 27.8 4.7 27.9 4.8 28 4.4 28.6 4.4 28.7 4.1 29.6 1.3 38.1 1.4 38.3 1.3 38.4 1.2 38.9 1.2 39L1.1 39.3C1.3 39.4 1 40 1 40.2L.9 40.5.9 41 .9 41C.9 41.5.9 41.6.9 41.6L.8 41.6C.8 41.6.8 41.6.8 41.6.8 41.6.3 43.3.7 44.1.8 44.6 1 45.2 1.2 45.8L1.3 45.8C3.7 48.2 8.1 46.6 10.7 45.9 16.2 44.3 21.8 43.4 27.2 41.9 28.1 41.6 28.9 41 29.6 40.2 29.6 40.3 29.6 40.4 29.6 40.5 29.9 41 30.2 42.4 31.2 41.6 31.3 41.4 31.2 41.1 31.4 41 31.2 40.1 32.8 39.1 31.4 38.8zM140.5 19.9L140.5 20.5 141 20.5C141.2 19.9 140.7 20 140.5 19.9zM142.1 20.2C142.1 20.2 141.8 20.9 142.1 21.1 142.4 21.3 142.7 21.4 142.9 21.1 143.3 20.9 142.6 20.1 142.1 20.2zM141.9 18.7L141.9 18 141.4 18C141.3 18.4 141.6 18.5 141.9 18.7zM134.8 19C134.5 18.9 134.6 19.4 134.4 19.4L134.8 19.6 134.8 19zM133.7 23.2C133.8 23 133.7 22.7 133.9 22.6 133.7 21.8 135.3 20.7 133.9 20.4 133.2 21 132 20.7 132.1 22.2 132.4 22.7 132.7 24 133.7 23.2zM18.8 9.8C18.6 9.7 18.7 10.1 18.5 10.1L18.8 10.2 18.8 9.8z"/>
  </g>
</svg>
