<svg xmlns="http://www.w3.org/2000/svg" width="148" height="38" viewBox="0 0 148 38">
  <g fill="#A0AEC0" transform="translate(-.8)">
    <path d="M10.7 9L6.1 9 6.1 2.5 4.6 2.5 4.6 9 .8 9 .8 10.3 4.7 10.3 4.7 24.9C4.5 29.6 7.6 30.1 10.8 29.9L10.8 28.6C7.9 28.7 6.3 28.4 6.3 25L6.3 10.3 10.9 10.3 10.9 9 10.7 9zM26.2 21.9C26.2 23 25.4 29 18.4 29 14.7 29 12.9 27 12.9 24.4 12.9 21.3 15 20 18.6 19.6 21.6 19.2 24.9 19.4 26.2 18L26.2 21.9zM27.8 14C27.8 9.7 24.1 8.5 20.5 8.5 15.6 8.5 12.7 10.8 12.5 15.4L14 15.4C14.2 11.8 16.7 9.8 20.4 9.8 25.2 9.8 26.2 13 26.2 13.9 26.2 17.3 25.9 17.8 19 18.3 15.5 18.6 11.3 19.6 11.3 24.5 11.3 28.9 14.4 30.4 18.3 30.4 22.3 30.4 25.1 28.2 26.1 25.8L26.2 25.8 26.2 26.9C26.2 28.6 26.6 30 29 30 29.4 30 29.8 29.9 30.3 29.8L30.3 28.5C29.8 28.6 29.4 28.6 29.2 28.6 27.8 28.6 27.8 27.3 27.8 26.1L27.8 14 27.8 14zM30.7 23C30.8 27.9 34.4 30.4 39.2 30.4 42.9 30.4 47.4 29.1 47.4 24.6 47.4 20.2 44.1 19.2 40 18.5 36.6 17.8 33 17.2 33 13.9 33 10.9 36.2 9.9 39 9.9 42.5 9.9 45.1 11.4 45.2 15.2L46.7 15.2C46.7 10.4 43.4 8.5 39 8.5 35.5 8.5 31.4 9.7 31.4 13.9 31.4 18.2 35 19.1 38.6 19.8 42.2 20.5 45.8 21.1 45.8 24.6 45.8 28.2 41.9 29 39.2 29 35.4 29 32.5 26.8 32.3 22.9L30.7 22.9 30.7 23zM57.5 9L52.9 9 52.9 2.5 51.4 2.5 51.4 9 47.5 9 47.5 10.3 51.4 10.3 51.4 24.9C51.2 29.6 54.3 30.1 57.5 29.9L57.5 28.6C54.6 28.7 53 28.4 53 25L53 10.3 57.6 10.3 57.6 9 57.5 9zM76.6 19.7C76.9 13.7 74 8.6 67.4 8.6 61.1 8.6 58.1 14.2 58.2 19.9 58.1 25.7 61.3 30.5 67.4 30.5 72.4 30.5 75.6 27.8 76.4 22.9L74.9 22.9C74.2 26.8 71.4 29.1 67.4 29.1 62.2 29.1 59.6 24.6 59.7 19.7L76.6 19.7 76.6 19.7zM59.7 18.3C60 14.2 62.8 9.8 67.4 9.8 72.2 9.8 75 13.9 75 18.3L59.7 18.3zM96.7 15.6C96.1 10.8 92.7 8.4 88.2 8.4 81.8 8.4 78.3 13.5 78.3 19.5 78.3 25.5 81.8 30.6 88.2 30.6 92.9 30.6 96.2 27.5 96.9 22.5L94.3 22.5C94 26 91.4 28.5 88.2 28.5 83.3 28.5 80.8 24 80.8 19.5 80.8 15 83.2 10.5 88.2 10.5 91.5 10.5 93.4 12.4 94.1 15.5L96.7 15.5 96.7 15.6zM112.6 21.8C112.6 25.9 109.2 28.4 105.3 28.4 102.9 28.4 100.6 26.8 100.6 24.2 100.6 20.1 106 20.1 110.4 19.4 111.1 19.3 112.2 19.1 112.6 18.5L112.7 18.5 112.7 21.8 112.6 21.8zM101.5 15.4C101.6 12 103.9 10.5 107.1 10.5 110.1 10.5 112.6 11.4 112.6 14.8 112.6 17.1 111.4 17.4 109.3 17.6 103.8 18.3 98 18.5 98 24.4 98 28.6 101.2 30.5 105 30.5 109 30.5 110.9 29 112.7 26.2L112.8 26.2C112.8 28.4 113.2 29.9 115.8 29.9 116.5 29.9 116.9 29.9 117.5 29.7L117.5 27.5C117.3 27.6 117 27.7 116.7 27.7 115.7 27.7 115.2 27.1 115.2 26.2L115.2 15.1C115.2 9.5 111.2 8.3 107.5 8.3 102.7 8.3 99.2 10.4 99 15.3L101.5 15.3 101.5 15.4zM118.9 30L121.5 30 121.5 18.8C121.5 14.4 124.7 11 129.3 11.3L129.3 8.7C125.5 8.5 122.7 10.5 121.4 13.9L121.3 13.9 121.3 9 118.9 9 118.9 30zM131.4 19.5C131.4 15.1 133.4 10.5 138.3 10.5 143.8 10.5 145.7 15.1 145.7 19.5 145.7 23.9 143.8 28.5 138.3 28.5 133.4 28.4 131.4 23.8 131.4 19.5M148.2.9L145.6.9 145.6 12.9 145.5 12.9C144.4 9.9 141.3 8.3 138.2 8.3 131.8 8.3 128.8 13.5 128.8 19.4 128.8 25.3 131.9 30.5 138.2 30.5 141.3 30.5 144.6 28.6 145.7 25.9L145.8 25.9 145.8 29.9 148.2 29.9 148.2.9z"/>
    <rect width="147.5" height="1" x=".8" y="36.2"/>
  </g>
</svg>
